Coordinates
version=1
nRows=24
nColumns=38
inDegrees=no

Units are S.I. units (second, meters, Newtons, ...)
If the header above contains a line with 'inDegrees', this indicates whether rotational values are in degrees (yes) or radians (no).

endheader
time	pelvis_tilt	pelvis_list	pelvis_rotation	pelvis_tx	pelvis_ty	pelvis_tz	hip_flexion_r	hip_adduction_r	hip_rotation_r	knee_angle_r	ankle_angle_r	subtalar_angle_r	mtp_angle_r	hip_flexion_l	hip_adduction_l	hip_rotation_l	knee_angle_l	ankle_angle_l	subtalar_angle_l	mtp_angle_l	lumbar_extension	lumbar_bending	lumbar_rotation	arm_flex_r	arm_add_r	arm_rot_r	elbow_flex_r	pro_sup_r	wrist_flex_r	wrist_dev_r	arm_flex_l	arm_add_l	arm_rot_l	elbow_flex_l	pro_sup_l	wrist_flex_l	wrist_dev_l
2.75	-0.496612	1.40188	-0.406504	0.905271	0.730056	0.933061	0.273247	-0.202322	-0.698132	0.600891	0.249909	0	0	-0.31393	-0.13809	0.0306343	0	0.142595	0	0	-0.292782	0.306518	0.15969	0.74724	-0.31987	0.0561663	0.645549	1.5708	0	0	-0.308449	-0.37001	0.324174	0.714429	1.28139	0	0
2.76	-0.560207	1.40117	-0.34671	0.905308	0.725146	0.931863	0.295535	-0.199041	-0.697994	0.591759	0.136728	0	0	-0.310243	-0.144934	0.0256185	0	0.146482	0	0	-0.28317	0.313657	0.16524	0.743037	-0.32955	0.0496746	0.651809	1.5708	0	0	-0.309089	-0.364557	0.313411	0.701615	1.30487	0	0
2.77	-0.532188	1.40747	-0.366707	0.906753	0.719717	0.930464	0.286218	-0.207448	-0.697927	0.565276	0.196794	0	0	-0.317871	-0.142202	0.0300984	0	0.150041	0	0	-0.278647	0.308189	0.155066	0.735426	-0.334832	0.0398788	0.658196	1.5708	0	0	-0.316488	-0.368881	0.309291	0.701834	1.31195	0	0
2.78	-0.584313	1.41135	-0.3126	0.906116	0.715692	0.928824	0.302886	-0.202399	-0.695399	0.537131	0.179068	0	0	-0.310438	-0.146777	0.0317918	0	0.156715	0	0	-0.273532	0.307507	0.153597	0.736245	-0.341723	0.0319768	0.665848	1.5708	0	0	-0.314595	-0.369911	0.303383	0.696347	1.32481	0	0
2.79	-0.584594	1.4172	-0.30651	0.906512	0.709667	0.927219	0.298129	-0.208818	-0.695093	0.510188	0.186274	0	0	-0.313576	-0.146289	0.0350144	0	0.161314	0	0	-0.267231	0.303196	0.145472	0.730174	-0.34671	0.0238327	0.67253	1.5708	0	0	-0.32113	-0.373319	0.300651	0.693254	1.3353	0	0
2.8	-0.596552	1.42298	-0.288831	0.908202	0.703482	0.925297	0.28035	-0.200387	-0.653435	0.436309	0.193422	0	0	-0.317068	-0.146385	0.0377778	0	0.16491	0	0	-0.254943	0.300217	0.136606	0.718832	-0.350933	0.0134646	0.678574	1.5708	0	0	-0.332518	-0.373257	0.287166	0.688685	1.35396	0	0
2.81	-0.613223	1.42538	-0.269579	0.90861	0.698485	0.923885	0.298015	-0.213133	-0.693889	0.464826	0.19648	0	0	-0.317739	-0.149446	0.0380277	0	0.17104	0	0	-0.252521	0.300102	0.133034	0.716612	-0.357826	0.00802178	0.688426	1.5708	0	0	-0.334972	-0.373123	0.278431	0.686645	1.35085	0	0
2.82	-0.605142	1.42771	-0.276348	0.910268	0.691122	0.922407	0.291542	-0.21644	-0.696845	0.448533	0.206501	0	0	-0.328482	-0.149883	0.0376522	0	0.173047	0	0	-0.242271	0.300347	0.128949	0.701784	-0.362359	-0.00402503	0.697571	1.5708	0	0	-0.348243	-0.371855	0.269687	0.681889	1.34924	0	0
2.83	-0.636931	1.43309	-0.237313	0.910026	0.686405	0.920808	0.294744	-0.217661	-0.692952	0.425862	0.198207	0	0	-0.323278	-0.152754	0.0429877	0	0.179706	0	0	-0.238729	0.296316	0.120535	0.698028	-0.367247	-0.0139756	0.71208	1.5708	0	0	-0.349569	-0.373921	0.26777	0.679843	1.35532	0	0
2.84	-0.667234	1.4344	-0.20531	0.910475	0.680136	0.919401	0.30021	-0.213837	-0.692725	0.410388	0.186336	0	0	-0.324727	-0.156854	0.0430277	0	0.184008	0	0	-0.231178	0.297759	0.117291	0.687711	-0.371771	-0.0267872	0.726123	1.5708	0	0	-0.35616	-0.370696	0.25731	0.673448	1.35528	0	0
2.85	-0.648277	1.44028	-0.223184	0.911854	0.672122	0.91758	0.28963	-0.213174	-0.697726	0.385401	0.215162	0	0	-0.336033	-0.154927	0.042671	0	0.187152	0	0	-0.221982	0.291895	0.111202	0.670062	-0.370905	-0.0452182	0.740646	1.5708	0	0	-0.372834	-0.3719	0.245478	0.673219	1.35516	0	0
2.86	-0.670109	1.44431	-0.198421	0.912344	0.665678	0.916026	0.292314	-0.218165	-0.697734	0.379746	0.213414	0	0	-0.337647	-0.156576	0.0447709	0	0.191363	0	0	-0.215276	0.289733	0.10643	0.65812	-0.374199	-0.0603907	0.757136	1.5708	0	0	-0.380274	-0.370613	0.242471	0.669559	1.36073	0	0
2.87	-0.693154	1.44811	-0.172362	0.912864	0.658754	0.914469	0.289984	-0.218974	-0.697699	0.369731	0.214619	0	0	-0.340042	-0.1587	0.0461347	0	0.195336	0	0	-0.207452	0.287413	0.101327	0.644872	-0.376489	-0.0764386	0.773574	1.5708	0	0	-0.388974	-0.368928	0.233675	0.666247	1.36152	0	0
2.88	-0.721667	1.45157	-0.141076	0.913341	0.651643	0.912826	0.287413	-0.218586	-0.69766	0.35987	0.212981	0	0	-0.342105	-0.16151	0.0468398	0	0.199262	0	0	-0.199252	0.285285	0.0965566	0.631434	-0.379293	-0.0902337	0.790129	1.5708	0	0	-0.397853	-0.367798	0.231096	0.662798	1.36863	0	0
2.89	-0.753728	1.45475	-0.106841	0.91367	0.644348	0.911204	0.285137	-0.217413	-0.697669	0.352182	0.209015	0	0	-0.344128	-0.164702	0.0469513	0	0.203165	0	0	-0.191123	0.283148	0.0925908	0.617826	-0.382387	-0.10288	0.806998	1.5708	0	0	-0.406685	-0.366791	0.230465	0.660067	1.37981	0	0
2.9	-0.790046	1.45799	-0.068585	0.913976	0.637126	0.909578	0.283314	-0.215768	-0.697579	0.34668	0.204171	0	0	-0.345425	-0.167982	0.047297	0	0.20691	0	0	-0.183538	0.280635	0.0888954	0.604414	-0.385176	-0.114722	0.823888	1.5708	0	0	-0.415269	-0.365108	0.226657	0.657738	1.38285	0	0
2.91	-0.828797	1.46071	-0.0285004	0.91403	0.629539	0.908005	0.281592	-0.213369	-0.697539	0.343473	0.199883	0	0	-0.346714	-0.171671	0.0471509	0	0.210638	0	0	-0.176128	0.278196	0.0854583	0.590329	-0.387356	-0.126391	0.842117	1.5708	0	0	-0.424088	-0.36287	0.219646	0.655936	1.37337	0	0
2.92	-0.867975	1.46288	0.0117429	0.913645	0.621484	0.906598	0.278658	-0.209435	-0.697397	0.340062	0.19576	0	0	-0.347902	-0.175823	0.0468374	0	0.214194	0	0	-0.169599	0.27574	0.0824411	0.574734	-0.38904	-0.139358	0.862693	1.5708	0	0	-0.432726	-0.361489	0.219125	0.654271	1.36384	0	0
2.93	-0.900487	1.46439	0.0444295	0.913782	0.613423	0.905081	0.273621	-0.203701	-0.697649	0.337029	0.191166	0	0	-0.351043	-0.180763	0.0451395	0	0.217332	0	0	-0.162831	0.273855	0.0800069	0.556964	-0.389678	-0.154208	0.885424	1.5708	0	0	-0.442048	-0.360535	0.222564	0.652426	1.36086	0	0
2.94	-0.92877	1.46507	0.0726758	0.913387	0.605059	0.903804	0.26825	-0.196128	-0.697779	0.332898	0.183542	0	0	-0.354054	-0.18653	0.0432303	0	0.220433	0	0	-0.15797	0.272385	0.0782973	0.538388	-0.389764	-0.169934	0.909946	1.5708	0	0	-0.450703	-0.359672	0.228565	0.650714	1.36656	0	0
2.95	-0.953008	1.46535	0.0955073	0.912686	0.596321	0.902721	0.263493	-0.187806	-0.697915	0.327974	0.170118	0	0	-0.357908	-0.192249	0.040949	0	0.222986	0	0	-0.154007	0.271147	0.0780878	0.519233	-0.389387	-0.186151	0.935223	1.5708	0	0	-0.45889	-0.35832	0.23533	0.648343	1.38088	0	0
2.96	-0.976398	1.46565	0.115891	0.91205	0.587693	0.901711	0.259301	-0.179034	-0.697931	0.320317	0.148722	0	0	-0.362173	-0.197539	0.0377265	0	0.224341	0	0	-0.151079	0.269943	0.0792904	0.500177	-0.388448	-0.202391	0.961119	1.5708	0	0	-0.466231	-0.354989	0.235618	0.644523	1.39054	0	0
2.97	-1.0017	1.46584	0.136703	0.91118	0.578932	0.900931	0.256806	-0.171085	-0.697959	0.31398	0.123314	0	0	-0.366247	-0.202177	0.03098	0	0.225239	0	0	-0.148824	0.268797	0.0816638	0.481526	-0.386884	-0.21811	0.987213	1.5708	0	0	-0.472758	-0.350205	0.234184	0.639364	1.39973	0	0
2.98	-1.03037	1.46304	0.16048	0.909887	0.56946	0.900503	0.253666	-0.16618	-0.698132	0.311489	0.104581	0	0	-0.371942	-0.215965	0.0167451	0	0.228453	0	0	-0.14615	0.269833	0.0854004	0.462594	-0.38451	-0.233336	1.01256	1.5708	0	0	-0.478664	-0.344449	0.230515	0.633274	1.40594	0	0
